
<svg width="405" height="103" viewBox="0 0 405 103" fill="none" xmlns="http://www.w3.org/2000/svg">
<mask id="path-1-outside-1" maskUnits="userSpaceOnUse" x="0.951874" y="0.496002" width="404" height="103" fill="black">
<rect fill="white" x="0.951874" y="0.496002" width="404" height="103"/>
<path d="M98.8479 69.592C99.6799 69.592 100.32 69.976 100.768 70.744C101.28 71.512 101.536 72.568 101.536 73.912C101.536 76.408 100.928 78.392 99.7119 79.864C96.6399 83.576 93.5359 86.456 90.3999 88.504C87.2639 90.488 83.5519 91.48 79.2639 91.48C75.1039 91.48 71.5519 90.36 68.6079 88.12C65.7279 85.88 62.9759 82.04 60.3519 76.6C58.2399 72.248 56.5759 69.048 55.3599 67C54.1439 64.888 52.9279 63.384 51.7119 62.488C50.5599 61.592 49.1199 61.048 47.3919 60.856C47.1359 62.2 46.3999 66.424 45.1839 73.528C44.6719 76.728 44.3519 78.68 44.2239 79.384C43.5839 83.288 42.3039 86.296 40.3839 88.408C38.4639 90.456 35.5519 91.48 31.6479 91.48C27.3599 91.48 23.5519 90.232 20.2239 87.736C16.9599 85.176 14.4319 81.656 12.6399 77.176C10.8479 72.632 9.95187 67.48 9.95187 61.72C9.95187 50.968 11.8079 41.688 15.5199 33.88C19.2959 26.072 24.5439 20.12 31.2639 16.024C38.0479 11.864 45.8559 9.784 54.6879 9.784C60.8319 9.784 65.9839 10.712 70.1439 12.568C74.3039 14.424 77.3759 16.984 79.3599 20.248C81.4079 23.512 82.4319 27.192 82.4319 31.288C82.4319 34.872 81.5679 38.392 79.8399 41.848C78.1759 45.24 75.6479 48.248 72.2559 50.872C68.8639 53.496 64.7359 55.448 59.8719 56.728C62.9439 57.56 65.3119 58.904 66.9759 60.76C68.6399 62.616 70.3039 65.336 71.9679 68.92C73.7599 72.76 75.5199 75.576 77.2479 77.368C79.0399 79.16 81.0879 80.056 83.3919 80.056C85.4399 80.056 87.3919 79.384 89.2479 78.04C91.1039 76.632 93.4399 74.264 96.2559 70.936C97.0239 70.04 97.8879 69.592 98.8479 69.592ZM34.1439 60.76C31.9679 60.76 30.4639 60.248 29.6319 59.224C28.8639 58.2 28.4799 57.048 28.4799 55.768C28.4799 54.232 28.9599 53.016 29.9199 52.12C30.9439 51.224 32.0959 50.776 33.3759 50.776H35.7759C36.7999 44.504 37.7599 39.096 38.6559 34.552C39.4879 30.392 42.1759 28.312 46.7199 28.312C50.3679 28.312 52.1919 29.944 52.1919 33.208C52.1919 33.912 52.1599 34.456 52.0959 34.84L49.2159 50.776C52.6719 50.584 55.8079 49.752 58.6239 48.28C61.5039 46.808 63.7759 44.76 65.4399 42.136C67.1679 39.512 68.0319 36.536 68.0319 33.208C68.0319 29.176 66.6559 26.008 63.9039 23.704C61.1519 21.4 57.1199 20.248 51.8079 20.248C45.5359 20.248 40.0319 21.816 35.2959 24.952C30.6239 28.024 26.9759 32.632 24.3519 38.776C21.7279 44.856 20.4159 52.28 20.4159 61.048C20.4159 65.144 20.8319 68.664 21.6639 71.608C22.4959 74.552 23.5199 76.76 24.7359 78.232C25.9519 79.704 27.1039 80.44 28.1919 80.44C29.0239 80.44 29.6959 80.024 30.2079 79.192C30.7839 78.36 31.2319 77.016 31.5519 75.16L34.1439 60.76Z"/>
<path d="M108.098 91.48C104.322 91.48 101.09 90.552 98.4016 88.696C95.7776 86.776 93.7936 84.28 92.4496 81.208C91.1056 78.136 90.4336 74.84 90.4336 71.32C90.4336 66.456 91.3296 62.136 93.1216 58.36C94.9776 54.52 97.4736 51.544 100.61 49.432C103.746 47.256 107.266 46.168 111.17 46.168C114.946 46.168 118.178 47.128 120.866 49.048C123.554 50.904 125.57 53.368 126.914 56.44C128.258 59.512 128.93 62.808 128.93 66.328C128.93 71.192 128.002 75.544 126.146 79.384C124.29 83.16 121.762 86.136 118.562 88.312C115.426 90.424 111.938 91.48 108.098 91.48ZM109.154 81.112C111.33 81.112 113.154 79.928 114.626 77.56C116.162 75.192 116.93 71.736 116.93 67.192C116.93 63.672 116.29 61.016 115.01 59.224C113.73 57.432 112.194 56.536 110.402 56.536C108.098 56.536 106.178 57.72 104.642 60.088C103.17 62.392 102.434 65.848 102.434 70.456C102.434 74.104 103.074 76.792 104.354 78.52C105.634 80.248 107.234 81.112 109.154 81.112Z"/>
<path d="M152.761 93.592C149.433 93.592 146.873 92.824 145.081 91.288C143.353 89.752 142.489 88.024 142.489 86.104C142.489 84.44 143.097 83 144.313 81.784C145.529 80.568 147.321 79.96 149.689 79.96C150.521 79.96 151.481 80.056 152.569 80.248C153.721 80.376 154.585 80.472 155.161 80.536C155.097 78.872 154.713 77.304 154.009 75.832C153.369 74.36 152.537 72.952 151.513 71.608C150.489 70.2 149.529 68.984 148.633 67.96C146.649 71.736 144.665 74.872 142.681 77.368C140.761 79.864 138.649 82.232 136.345 84.472C135.193 85.624 133.977 86.2 132.697 86.2C131.673 86.2 130.841 85.848 130.201 85.144C129.561 84.376 129.241 83.448 129.241 82.36C129.241 81.08 129.689 79.896 130.585 78.808L131.833 77.272C135.353 72.92 138.009 69.336 139.801 66.52C140.889 64.664 142.169 62.2 143.641 59.128C145.113 55.992 146.553 52.76 147.961 49.432C149.177 46.616 151.705 45.208 155.545 45.208C157.337 45.208 158.585 45.368 159.289 45.688C159.993 46.008 160.345 46.52 160.345 47.224C160.345 47.608 160.217 48.216 159.961 49.048C159.705 49.88 159.353 50.712 158.905 51.544C157.753 53.848 157.177 55.8 157.177 57.4C157.177 58.36 157.497 59.416 158.137 60.568C158.841 61.72 159.897 63.16 161.305 64.888C163.353 67.576 164.889 69.88 165.913 71.8C167.001 73.656 167.545 75.704 167.545 77.944C167.545 78.584 167.481 79.48 167.353 80.632C170.489 79.416 174.169 76.184 178.393 70.936C179.161 70.04 180.025 69.592 180.985 69.592C181.817 69.592 182.457 69.976 182.905 70.744C183.417 71.512 183.673 72.568 183.673 73.912C183.673 76.344 183.065 78.328 181.849 79.864C178.649 83.832 175.577 86.552 172.633 88.024C169.753 89.432 166.169 90.2 161.881 90.328C159.321 92.504 156.281 93.592 152.761 93.592Z"/>
<path d="M210.242 72.472C211.074 72.472 211.714 72.856 212.162 73.624C212.674 74.392 212.93 75.448 212.93 76.792C212.93 79.096 212.386 81.08 211.298 82.744C209.506 85.496 207.138 87.64 204.194 89.176C201.314 90.712 197.858 91.48 193.826 91.48C187.682 91.48 182.914 89.656 179.522 86.008C176.13 82.296 174.434 77.304 174.434 71.032C174.434 66.616 175.362 62.52 177.218 58.744C179.074 54.904 181.634 51.864 184.898 49.624C188.226 47.384 191.97 46.264 196.13 46.264C199.842 46.264 202.818 47.384 205.058 49.624C207.298 51.8 208.418 54.776 208.418 58.552C208.418 62.968 206.818 66.776 203.618 69.976C200.482 73.112 195.106 75.608 187.49 77.464C189.026 80.408 191.618 81.88 195.266 81.88C197.89 81.88 200.034 81.272 201.698 80.056C203.426 78.84 205.41 76.792 207.65 73.912C208.418 72.952 209.282 72.472 210.242 72.472ZM194.498 55.672C192.13 55.672 190.114 57.048 188.45 59.8C186.85 62.552 186.05 65.88 186.05 69.784V69.976C189.826 69.08 192.802 67.736 194.978 65.944C197.154 64.152 198.242 62.072 198.242 59.704C198.242 58.488 197.89 57.528 197.186 56.824C196.546 56.056 195.65 55.672 194.498 55.672Z"/>
<path d="M221.294 67.384C219.758 67.512 218.51 67.064 217.55 66.04C216.654 65.016 216.206 63.576 216.206 61.72C216.206 59.992 216.622 58.712 217.454 57.88C218.35 57.048 219.63 56.568 221.294 56.44L240.974 54.52C242.574 54.392 243.79 54.808 244.622 55.768C245.518 56.664 245.966 58.008 245.966 59.8C245.966 63.256 244.302 65.144 240.974 65.464L221.294 67.384Z"/>
<path d="M286.871 91.48C281.175 91.48 276.023 90.2 271.415 87.64C266.871 85.08 263.255 81.336 260.567 76.408C257.879 71.416 256.535 65.464 256.535 58.552C256.535 48.824 258.295 40.248 261.815 32.824C265.399 25.4 270.231 19.672 276.311 15.64C282.455 11.608 289.239 9.592 296.663 9.592C302.359 9.592 307.479 10.872 312.023 13.432C316.631 15.992 320.279 19.768 322.967 24.76C325.655 29.688 326.999 35.608 326.999 42.52C326.999 52.248 325.207 60.824 321.623 68.248C318.103 75.672 313.271 81.4 307.127 85.432C301.047 89.464 294.295 91.48 286.871 91.48ZM287.831 80.152C292.823 80.152 297.207 78.616 300.983 75.544C304.823 72.472 307.767 68.216 309.815 62.776C311.863 57.272 312.887 51.064 312.887 44.152C312.887 36.536 311.287 30.776 308.087 26.872C304.887 22.904 300.759 20.92 295.703 20.92C290.775 20.92 286.423 22.456 282.647 25.528C278.871 28.536 275.927 32.792 273.815 38.296C271.703 43.736 270.647 49.944 270.647 56.92C270.647 64.536 272.247 70.328 275.447 74.296C278.647 78.2 282.775 80.152 287.831 80.152Z"/>
<path d="M360.158 91.768C351.646 91.768 344.83 90.168 339.71 86.968C334.59 83.704 332.03 78.744 332.03 72.088C332.03 68.568 332.638 65.88 333.854 64.024C335.07 62.168 336.862 61.24 339.23 61.24C340.958 61.24 342.366 61.688 343.454 62.584C344.542 63.48 345.086 64.632 345.086 66.04C345.086 67.32 344.99 68.44 344.798 69.4C344.798 69.656 344.734 70.104 344.606 70.744C344.542 71.384 344.51 72.056 344.51 72.76C344.51 75.64 345.95 77.784 348.83 79.192C351.774 80.6 355.87 81.304 361.118 81.304C366.558 81.304 370.814 80.344 373.886 78.424C376.958 76.44 378.494 73.688 378.494 70.168C378.494 67.992 377.79 66.136 376.382 64.6C374.974 63 373.214 61.688 371.102 60.664C368.99 59.576 366.014 58.264 362.174 56.728C357.246 54.808 353.214 52.984 350.078 51.256C347.006 49.528 344.35 47.192 342.11 44.248C339.934 41.24 338.846 37.528 338.846 33.112C338.846 28.504 340.062 24.408 342.494 20.824C344.99 17.24 348.542 14.456 353.15 12.472C357.822 10.488 363.294 9.496 369.566 9.496C374.238 9.496 378.526 10.2 382.43 11.608C386.334 12.952 389.438 15.032 391.742 17.848C394.11 20.664 395.294 24.12 395.294 28.216C395.294 32.248 394.686 35.288 393.47 37.336C392.254 39.384 390.462 40.408 388.094 40.408C386.43 40.408 385.022 39.896 383.87 38.872C382.782 37.848 382.238 36.632 382.238 35.224C382.238 34.008 382.334 32.888 382.526 31.864C382.718 29.944 382.814 28.728 382.814 28.216C382.814 25.528 381.502 23.48 378.878 22.072C376.254 20.664 372.99 19.96 369.086 19.96C363.582 19.96 359.358 20.984 356.414 23.032C353.534 25.016 352.094 27.832 352.094 31.48C352.094 33.912 352.83 35.992 354.302 37.72C355.838 39.448 357.726 40.888 359.966 42.04C362.206 43.192 365.342 44.568 369.374 46.168C374.238 48.152 378.142 49.944 381.086 51.544C384.03 53.144 386.526 55.32 388.574 58.072C390.686 60.824 391.742 64.216 391.742 68.248C391.742 75.8 388.862 81.624 383.102 85.72C377.406 89.752 369.758 91.768 360.158 91.768Z"/>
</mask>
<path d="M98.8479 69.592C99.6799 69.592 100.32 69.976 100.768 70.744C101.28 71.512 101.536 72.568 101.536 73.912C101.536 76.408 100.928 78.392 99.7119 79.864C96.6399 83.576 93.5359 86.456 90.3999 88.504C87.2639 90.488 83.5519 91.48 79.2639 91.48C75.1039 91.48 71.5519 90.36 68.6079 88.12C65.7279 85.88 62.9759 82.04 60.3519 76.6C58.2399 72.248 56.5759 69.048 55.3599 67C54.1439 64.888 52.9279 63.384 51.7119 62.488C50.5599 61.592 49.1199 61.048 47.3919 60.856C47.1359 62.2 46.3999 66.424 45.1839 73.528C44.6719 76.728 44.3519 78.68 44.2239 79.384C43.5839 83.288 42.3039 86.296 40.3839 88.408C38.4639 90.456 35.5519 91.48 31.6479 91.48C27.3599 91.48 23.5519 90.232 20.2239 87.736C16.9599 85.176 14.4319 81.656 12.6399 77.176C10.8479 72.632 9.95187 67.48 9.95187 61.72C9.95187 50.968 11.8079 41.688 15.5199 33.88C19.2959 26.072 24.5439 20.12 31.2639 16.024C38.0479 11.864 45.8559 9.784 54.6879 9.784C60.8319 9.784 65.9839 10.712 70.1439 12.568C74.3039 14.424 77.3759 16.984 79.3599 20.248C81.4079 23.512 82.4319 27.192 82.4319 31.288C82.4319 34.872 81.5679 38.392 79.8399 41.848C78.1759 45.24 75.6479 48.248 72.2559 50.872C68.8639 53.496 64.7359 55.448 59.8719 56.728C62.9439 57.56 65.3119 58.904 66.9759 60.76C68.6399 62.616 70.3039 65.336 71.9679 68.92C73.7599 72.76 75.5199 75.576 77.2479 77.368C79.0399 79.16 81.0879 80.056 83.3919 80.056C85.4399 80.056 87.3919 79.384 89.2479 78.04C91.1039 76.632 93.4399 74.264 96.2559 70.936C97.0239 70.04 97.8879 69.592 98.8479 69.592ZM34.1439 60.76C31.9679 60.76 30.4639 60.248 29.6319 59.224C28.8639 58.2 28.4799 57.048 28.4799 55.768C28.4799 54.232 28.9599 53.016 29.9199 52.12C30.9439 51.224 32.0959 50.776 33.3759 50.776H35.7759C36.7999 44.504 37.7599 39.096 38.6559 34.552C39.4879 30.392 42.1759 28.312 46.7199 28.312C50.3679 28.312 52.1919 29.944 52.1919 33.208C52.1919 33.912 52.1599 34.456 52.0959 34.84L49.2159 50.776C52.6719 50.584 55.8079 49.752 58.6239 48.28C61.5039 46.808 63.7759 44.76 65.4399 42.136C67.1679 39.512 68.0319 36.536 68.0319 33.208C68.0319 29.176 66.6559 26.008 63.9039 23.704C61.1519 21.4 57.1199 20.248 51.8079 20.248C45.5359 20.248 40.0319 21.816 35.2959 24.952C30.6239 28.024 26.9759 32.632 24.3519 38.776C21.7279 44.856 20.4159 52.28 20.4159 61.048C20.4159 65.144 20.8319 68.664 21.6639 71.608C22.4959 74.552 23.5199 76.76 24.7359 78.232C25.9519 79.704 27.1039 80.44 28.1919 80.44C29.0239 80.44 29.6959 80.024 30.2079 79.192C30.7839 78.36 31.2319 77.016 31.5519 75.16L34.1439 60.76Z" fill="white"/>
<path d="M108.098 91.48C104.322 91.48 101.09 90.552 98.4016 88.696C95.7776 86.776 93.7936 84.28 92.4496 81.208C91.1056 78.136 90.4336 74.84 90.4336 71.32C90.4336 66.456 91.3296 62.136 93.1216 58.36C94.9776 54.52 97.4736 51.544 100.61 49.432C103.746 47.256 107.266 46.168 111.17 46.168C114.946 46.168 118.178 47.128 120.866 49.048C123.554 50.904 125.57 53.368 126.914 56.44C128.258 59.512 128.93 62.808 128.93 66.328C128.93 71.192 128.002 75.544 126.146 79.384C124.29 83.16 121.762 86.136 118.562 88.312C115.426 90.424 111.938 91.48 108.098 91.48ZM109.154 81.112C111.33 81.112 113.154 79.928 114.626 77.56C116.162 75.192 116.93 71.736 116.93 67.192C116.93 63.672 116.29 61.016 115.01 59.224C113.73 57.432 112.194 56.536 110.402 56.536C108.098 56.536 106.178 57.72 104.642 60.088C103.17 62.392 102.434 65.848 102.434 70.456C102.434 74.104 103.074 76.792 104.354 78.52C105.634 80.248 107.234 81.112 109.154 81.112Z" fill="white"/>
<path d="M152.761 93.592C149.433 93.592 146.873 92.824 145.081 91.288C143.353 89.752 142.489 88.024 142.489 86.104C142.489 84.44 143.097 83 144.313 81.784C145.529 80.568 147.321 79.96 149.689 79.96C150.521 79.96 151.481 80.056 152.569 80.248C153.721 80.376 154.585 80.472 155.161 80.536C155.097 78.872 154.713 77.304 154.009 75.832C153.369 74.36 152.537 72.952 151.513 71.608C150.489 70.2 149.529 68.984 148.633 67.96C146.649 71.736 144.665 74.872 142.681 77.368C140.761 79.864 138.649 82.232 136.345 84.472C135.193 85.624 133.977 86.2 132.697 86.2C131.673 86.2 130.841 85.848 130.201 85.144C129.561 84.376 129.241 83.448 129.241 82.36C129.241 81.08 129.689 79.896 130.585 78.808L131.833 77.272C135.353 72.92 138.009 69.336 139.801 66.52C140.889 64.664 142.169 62.2 143.641 59.128C145.113 55.992 146.553 52.76 147.961 49.432C149.177 46.616 151.705 45.208 155.545 45.208C157.337 45.208 158.585 45.368 159.289 45.688C159.993 46.008 160.345 46.52 160.345 47.224C160.345 47.608 160.217 48.216 159.961 49.048C159.705 49.88 159.353 50.712 158.905 51.544C157.753 53.848 157.177 55.8 157.177 57.4C157.177 58.36 157.497 59.416 158.137 60.568C158.841 61.72 159.897 63.16 161.305 64.888C163.353 67.576 164.889 69.88 165.913 71.8C167.001 73.656 167.545 75.704 167.545 77.944C167.545 78.584 167.481 79.48 167.353 80.632C170.489 79.416 174.169 76.184 178.393 70.936C179.161 70.04 180.025 69.592 180.985 69.592C181.817 69.592 182.457 69.976 182.905 70.744C183.417 71.512 183.673 72.568 183.673 73.912C183.673 76.344 183.065 78.328 181.849 79.864C178.649 83.832 175.577 86.552 172.633 88.024C169.753 89.432 166.169 90.2 161.881 90.328C159.321 92.504 156.281 93.592 152.761 93.592Z" fill="white"/>
<path d="M210.242 72.472C211.074 72.472 211.714 72.856 212.162 73.624C212.674 74.392 212.93 75.448 212.93 76.792C212.93 79.096 212.386 81.08 211.298 82.744C209.506 85.496 207.138 87.64 204.194 89.176C201.314 90.712 197.858 91.48 193.826 91.48C187.682 91.48 182.914 89.656 179.522 86.008C176.13 82.296 174.434 77.304 174.434 71.032C174.434 66.616 175.362 62.52 177.218 58.744C179.074 54.904 181.634 51.864 184.898 49.624C188.226 47.384 191.97 46.264 196.13 46.264C199.842 46.264 202.818 47.384 205.058 49.624C207.298 51.8 208.418 54.776 208.418 58.552C208.418 62.968 206.818 66.776 203.618 69.976C200.482 73.112 195.106 75.608 187.49 77.464C189.026 80.408 191.618 81.88 195.266 81.88C197.89 81.88 200.034 81.272 201.698 80.056C203.426 78.84 205.41 76.792 207.65 73.912C208.418 72.952 209.282 72.472 210.242 72.472ZM194.498 55.672C192.13 55.672 190.114 57.048 188.45 59.8C186.85 62.552 186.05 65.88 186.05 69.784V69.976C189.826 69.08 192.802 67.736 194.978 65.944C197.154 64.152 198.242 62.072 198.242 59.704C198.242 58.488 197.89 57.528 197.186 56.824C196.546 56.056 195.65 55.672 194.498 55.672Z" fill="white"/>
<path d="M221.294 67.384C219.758 67.512 218.51 67.064 217.55 66.04C216.654 65.016 216.206 63.576 216.206 61.72C216.206 59.992 216.622 58.712 217.454 57.88C218.35 57.048 219.63 56.568 221.294 56.44L240.974 54.52C242.574 54.392 243.79 54.808 244.622 55.768C245.518 56.664 245.966 58.008 245.966 59.8C245.966 63.256 244.302 65.144 240.974 65.464L221.294 67.384Z" fill="white"/>
<path d="M286.871 91.48C281.175 91.48 276.023 90.2 271.415 87.64C266.871 85.08 263.255 81.336 260.567 76.408C257.879 71.416 256.535 65.464 256.535 58.552C256.535 48.824 258.295 40.248 261.815 32.824C265.399 25.4 270.231 19.672 276.311 15.64C282.455 11.608 289.239 9.592 296.663 9.592C302.359 9.592 307.479 10.872 312.023 13.432C316.631 15.992 320.279 19.768 322.967 24.76C325.655 29.688 326.999 35.608 326.999 42.52C326.999 52.248 325.207 60.824 321.623 68.248C318.103 75.672 313.271 81.4 307.127 85.432C301.047 89.464 294.295 91.48 286.871 91.48ZM287.831 80.152C292.823 80.152 297.207 78.616 300.983 75.544C304.823 72.472 307.767 68.216 309.815 62.776C311.863 57.272 312.887 51.064 312.887 44.152C312.887 36.536 311.287 30.776 308.087 26.872C304.887 22.904 300.759 20.92 295.703 20.92C290.775 20.92 286.423 22.456 282.647 25.528C278.871 28.536 275.927 32.792 273.815 38.296C271.703 43.736 270.647 49.944 270.647 56.92C270.647 64.536 272.247 70.328 275.447 74.296C278.647 78.2 282.775 80.152 287.831 80.152Z" fill="white"/>
<path d="M360.158 91.768C351.646 91.768 344.83 90.168 339.71 86.968C334.59 83.704 332.03 78.744 332.03 72.088C332.03 68.568 332.638 65.88 333.854 64.024C335.07 62.168 336.862 61.24 339.23 61.24C340.958 61.24 342.366 61.688 343.454 62.584C344.542 63.48 345.086 64.632 345.086 66.04C345.086 67.32 344.99 68.44 344.798 69.4C344.798 69.656 344.734 70.104 344.606 70.744C344.542 71.384 344.51 72.056 344.51 72.76C344.51 75.64 345.95 77.784 348.83 79.192C351.774 80.6 355.87 81.304 361.118 81.304C366.558 81.304 370.814 80.344 373.886 78.424C376.958 76.44 378.494 73.688 378.494 70.168C378.494 67.992 377.79 66.136 376.382 64.6C374.974 63 373.214 61.688 371.102 60.664C368.99 59.576 366.014 58.264 362.174 56.728C357.246 54.808 353.214 52.984 350.078 51.256C347.006 49.528 344.35 47.192 342.11 44.248C339.934 41.24 338.846 37.528 338.846 33.112C338.846 28.504 340.062 24.408 342.494 20.824C344.99 17.24 348.542 14.456 353.15 12.472C357.822 10.488 363.294 9.496 369.566 9.496C374.238 9.496 378.526 10.2 382.43 11.608C386.334 12.952 389.438 15.032 391.742 17.848C394.11 20.664 395.294 24.12 395.294 28.216C395.294 32.248 394.686 35.288 393.47 37.336C392.254 39.384 390.462 40.408 388.094 40.408C386.43 40.408 385.022 39.896 383.87 38.872C382.782 37.848 382.238 36.632 382.238 35.224C382.238 34.008 382.334 32.888 382.526 31.864C382.718 29.944 382.814 28.728 382.814 28.216C382.814 25.528 381.502 23.48 378.878 22.072C376.254 20.664 372.99 19.96 369.086 19.96C363.582 19.96 359.358 20.984 356.414 23.032C353.534 25.016 352.094 27.832 352.094 31.48C352.094 33.912 352.83 35.992 354.302 37.72C355.838 39.448 357.726 40.888 359.966 42.04C362.206 43.192 365.342 44.568 369.374 46.168C374.238 48.152 378.142 49.944 381.086 51.544C384.03 53.144 386.526 55.32 388.574 58.072C390.686 60.824 391.742 64.216 391.742 68.248C391.742 75.8 388.862 81.624 383.102 85.72C377.406 89.752 369.758 91.768 360.158 91.768Z" fill="white"/>
<path d="M98.8479 69.592C99.6799 69.592 100.32 69.976 100.768 70.744C101.28 71.512 101.536 72.568 101.536 73.912C101.536 76.408 100.928 78.392 99.7119 79.864C96.6399 83.576 93.5359 86.456 90.3999 88.504C87.2639 90.488 83.5519 91.48 79.2639 91.48C75.1039 91.48 71.5519 90.36 68.6079 88.12C65.7279 85.88 62.9759 82.04 60.3519 76.6C58.2399 72.248 56.5759 69.048 55.3599 67C54.1439 64.888 52.9279 63.384 51.7119 62.488C50.5599 61.592 49.1199 61.048 47.3919 60.856C47.1359 62.2 46.3999 66.424 45.1839 73.528C44.6719 76.728 44.3519 78.68 44.2239 79.384C43.5839 83.288 42.3039 86.296 40.3839 88.408C38.4639 90.456 35.5519 91.48 31.6479 91.48C27.3599 91.48 23.5519 90.232 20.2239 87.736C16.9599 85.176 14.4319 81.656 12.6399 77.176C10.8479 72.632 9.95187 67.48 9.95187 61.72C9.95187 50.968 11.8079 41.688 15.5199 33.88C19.2959 26.072 24.5439 20.12 31.2639 16.024C38.0479 11.864 45.8559 9.784 54.6879 9.784C60.8319 9.784 65.9839 10.712 70.1439 12.568C74.3039 14.424 77.3759 16.984 79.3599 20.248C81.4079 23.512 82.4319 27.192 82.4319 31.288C82.4319 34.872 81.5679 38.392 79.8399 41.848C78.1759 45.24 75.6479 48.248 72.2559 50.872C68.8639 53.496 64.7359 55.448 59.8719 56.728C62.9439 57.56 65.3119 58.904 66.9759 60.76C68.6399 62.616 70.3039 65.336 71.9679 68.92C73.7599 72.76 75.5199 75.576 77.2479 77.368C79.0399 79.16 81.0879 80.056 83.3919 80.056C85.4399 80.056 87.3919 79.384 89.2479 78.04C91.1039 76.632 93.4399 74.264 96.2559 70.936C97.0239 70.04 97.8879 69.592 98.8479 69.592ZM34.1439 60.76C31.9679 60.76 30.4639 60.248 29.6319 59.224C28.8639 58.2 28.4799 57.048 28.4799 55.768C28.4799 54.232 28.9599 53.016 29.9199 52.12C30.9439 51.224 32.0959 50.776 33.3759 50.776H35.7759C36.7999 44.504 37.7599 39.096 38.6559 34.552C39.4879 30.392 42.1759 28.312 46.7199 28.312C50.3679 28.312 52.1919 29.944 52.1919 33.208C52.1919 33.912 52.1599 34.456 52.0959 34.84L49.2159 50.776C52.6719 50.584 55.8079 49.752 58.6239 48.28C61.5039 46.808 63.7759 44.76 65.4399 42.136C67.1679 39.512 68.0319 36.536 68.0319 33.208C68.0319 29.176 66.6559 26.008 63.9039 23.704C61.1519 21.4 57.1199 20.248 51.8079 20.248C45.5359 20.248 40.0319 21.816 35.2959 24.952C30.6239 28.024 26.9759 32.632 24.3519 38.776C21.7279 44.856 20.4159 52.28 20.4159 61.048C20.4159 65.144 20.8319 68.664 21.6639 71.608C22.4959 74.552 23.5199 76.76 24.7359 78.232C25.9519 79.704 27.1039 80.44 28.1919 80.44C29.0239 80.44 29.6959 80.024 30.2079 79.192C30.7839 78.36 31.2319 77.016 31.5519 75.16L34.1439 60.76Z" stroke="#535353" stroke-width="18" mask="url(#path-1-outside-1)"/>
<path d="M98.8479 69.592C99.6799 69.592 100.32 69.976 100.768 70.744C101.28 71.512 101.536 72.568 101.536 73.912C101.536 76.408 100.928 78.392 99.7119 79.864C96.6399 83.576 93.5359 86.456 90.3999 88.504C87.2639 90.488 83.5519 91.48 79.2639 91.48C75.1039 91.48 71.5519 90.36 68.6079 88.12C65.7279 85.88 62.9759 82.04 60.3519 76.6C58.2399 72.248 56.5759 69.048 55.3599 67C54.1439 64.888 52.9279 63.384 51.7119 62.488C50.5599 61.592 49.1199 61.048 47.3919 60.856C47.1359 62.2 46.3999 66.424 45.1839 73.528C44.6719 76.728 44.3519 78.68 44.2239 79.384C43.5839 83.288 42.3039 86.296 40.3839 88.408C38.4639 90.456 35.5519 91.48 31.6479 91.48C27.3599 91.48 23.5519 90.232 20.2239 87.736C16.9599 85.176 14.4319 81.656 12.6399 77.176C10.8479 72.632 9.95187 67.48 9.95187 61.72C9.95187 50.968 11.8079 41.688 15.5199 33.88C19.2959 26.072 24.5439 20.12 31.2639 16.024C38.0479 11.864 45.8559 9.784 54.6879 9.784C60.8319 9.784 65.9839 10.712 70.1439 12.568C74.3039 14.424 77.3759 16.984 79.3599 20.248C81.4079 23.512 82.4319 27.192 82.4319 31.288C82.4319 34.872 81.5679 38.392 79.8399 41.848C78.1759 45.24 75.6479 48.248 72.2559 50.872C68.8639 53.496 64.7359 55.448 59.8719 56.728C62.9439 57.56 65.3119 58.904 66.9759 60.76C68.6399 62.616 70.3039 65.336 71.9679 68.92C73.7599 72.76 75.5199 75.576 77.2479 77.368C79.0399 79.16 81.0879 80.056 83.3919 80.056C85.4399 80.056 87.3919 79.384 89.2479 78.04C91.1039 76.632 93.4399 74.264 96.2559 70.936C97.0239 70.04 97.8879 69.592 98.8479 69.592ZM34.1439 60.76C31.9679 60.76 30.4639 60.248 29.6319 59.224C28.8639 58.2 28.4799 57.048 28.4799 55.768C28.4799 54.232 28.9599 53.016 29.9199 52.12C30.9439 51.224 32.0959 50.776 33.3759 50.776H35.7759C36.7999 44.504 37.7599 39.096 38.6559 34.552C39.4879 30.392 42.1759 28.312 46.7199 28.312C50.3679 28.312 52.1919 29.944 52.1919 33.208C52.1919 33.912 52.1599 34.456 52.0959 34.84L49.2159 50.776C52.6719 50.584 55.8079 49.752 58.6239 48.28C61.5039 46.808 63.7759 44.76 65.4399 42.136C67.1679 39.512 68.0319 36.536 68.0319 33.208C68.0319 29.176 66.6559 26.008 63.9039 23.704C61.1519 21.4 57.1199 20.248 51.8079 20.248C45.5359 20.248 40.0319 21.816 35.2959 24.952C30.6239 28.024 26.9759 32.632 24.3519 38.776C21.7279 44.856 20.4159 52.28 20.4159 61.048C20.4159 65.144 20.8319 68.664 21.6639 71.608C22.4959 74.552 23.5199 76.76 24.7359 78.232C25.9519 79.704 27.1039 80.44 28.1919 80.44C29.0239 80.44 29.6959 80.024 30.2079 79.192C30.7839 78.36 31.2319 77.016 31.5519 75.16L34.1439 60.76Z" stroke="url(#paint0_linear)" stroke-width="18" mask="url(#path-1-outside-1)"/>
<path d="M98.8479 69.592C99.6799 69.592 100.32 69.976 100.768 70.744C101.28 71.512 101.536 72.568 101.536 73.912C101.536 76.408 100.928 78.392 99.7119 79.864C96.6399 83.576 93.5359 86.456 90.3999 88.504C87.2639 90.488 83.5519 91.48 79.2639 91.48C75.1039 91.48 71.5519 90.36 68.6079 88.12C65.7279 85.88 62.9759 82.04 60.3519 76.6C58.2399 72.248 56.5759 69.048 55.3599 67C54.1439 64.888 52.9279 63.384 51.7119 62.488C50.5599 61.592 49.1199 61.048 47.3919 60.856C47.1359 62.2 46.3999 66.424 45.1839 73.528C44.6719 76.728 44.3519 78.68 44.2239 79.384C43.5839 83.288 42.3039 86.296 40.3839 88.408C38.4639 90.456 35.5519 91.48 31.6479 91.48C27.3599 91.48 23.5519 90.232 20.2239 87.736C16.9599 85.176 14.4319 81.656 12.6399 77.176C10.8479 72.632 9.95187 67.48 9.95187 61.72C9.95187 50.968 11.8079 41.688 15.5199 33.88C19.2959 26.072 24.5439 20.12 31.2639 16.024C38.0479 11.864 45.8559 9.784 54.6879 9.784C60.8319 9.784 65.9839 10.712 70.1439 12.568C74.3039 14.424 77.3759 16.984 79.3599 20.248C81.4079 23.512 82.4319 27.192 82.4319 31.288C82.4319 34.872 81.5679 38.392 79.8399 41.848C78.1759 45.24 75.6479 48.248 72.2559 50.872C68.8639 53.496 64.7359 55.448 59.8719 56.728C62.9439 57.56 65.3119 58.904 66.9759 60.76C68.6399 62.616 70.3039 65.336 71.9679 68.92C73.7599 72.76 75.5199 75.576 77.2479 77.368C79.0399 79.16 81.0879 80.056 83.3919 80.056C85.4399 80.056 87.3919 79.384 89.2479 78.04C91.1039 76.632 93.4399 74.264 96.2559 70.936C97.0239 70.04 97.8879 69.592 98.8479 69.592ZM34.1439 60.76C31.9679 60.76 30.4639 60.248 29.6319 59.224C28.8639 58.2 28.4799 57.048 28.4799 55.768C28.4799 54.232 28.9599 53.016 29.9199 52.12C30.9439 51.224 32.0959 50.776 33.3759 50.776H35.7759C36.7999 44.504 37.7599 39.096 38.6559 34.552C39.4879 30.392 42.1759 28.312 46.7199 28.312C50.3679 28.312 52.1919 29.944 52.1919 33.208C52.1919 33.912 52.1599 34.456 52.0959 34.84L49.2159 50.776C52.6719 50.584 55.8079 49.752 58.6239 48.28C61.5039 46.808 63.7759 44.76 65.4399 42.136C67.1679 39.512 68.0319 36.536 68.0319 33.208C68.0319 29.176 66.6559 26.008 63.9039 23.704C61.1519 21.4 57.1199 20.248 51.8079 20.248C45.5359 20.248 40.0319 21.816 35.2959 24.952C30.6239 28.024 26.9759 32.632 24.3519 38.776C21.7279 44.856 20.4159 52.28 20.4159 61.048C20.4159 65.144 20.8319 68.664 21.6639 71.608C22.4959 74.552 23.5199 76.76 24.7359 78.232C25.9519 79.704 27.1039 80.44 28.1919 80.44C29.0239 80.44 29.6959 80.024 30.2079 79.192C30.7839 78.36 31.2319 77.016 31.5519 75.16L34.1439 60.76Z" stroke="url(#paint1_linear)" stroke-width="18" mask="url(#path-1-outside-1)"/>
<path d="M108.098 91.48C104.322 91.48 101.09 90.552 98.4016 88.696C95.7776 86.776 93.7936 84.28 92.4496 81.208C91.1056 78.136 90.4336 74.84 90.4336 71.32C90.4336 66.456 91.3296 62.136 93.1216 58.36C94.9776 54.52 97.4736 51.544 100.61 49.432C103.746 47.256 107.266 46.168 111.17 46.168C114.946 46.168 118.178 47.128 120.866 49.048C123.554 50.904 125.57 53.368 126.914 56.44C128.258 59.512 128.93 62.808 128.93 66.328C128.93 71.192 128.002 75.544 126.146 79.384C124.29 83.16 121.762 86.136 118.562 88.312C115.426 90.424 111.938 91.48 108.098 91.48ZM109.154 81.112C111.33 81.112 113.154 79.928 114.626 77.56C116.162 75.192 116.93 71.736 116.93 67.192C116.93 63.672 116.29 61.016 115.01 59.224C113.73 57.432 112.194 56.536 110.402 56.536C108.098 56.536 106.178 57.72 104.642 60.088C103.17 62.392 102.434 65.848 102.434 70.456C102.434 74.104 103.074 76.792 104.354 78.52C105.634 80.248 107.234 81.112 109.154 81.112Z" stroke="#535353" stroke-width="18" mask="url(#path-1-outside-1)"/>
<path d="M108.098 91.48C104.322 91.48 101.09 90.552 98.4016 88.696C95.7776 86.776 93.7936 84.28 92.4496 81.208C91.1056 78.136 90.4336 74.84 90.4336 71.32C90.4336 66.456 91.3296 62.136 93.1216 58.36C94.9776 54.52 97.4736 51.544 100.61 49.432C103.746 47.256 107.266 46.168 111.17 46.168C114.946 46.168 118.178 47.128 120.866 49.048C123.554 50.904 125.57 53.368 126.914 56.44C128.258 59.512 128.93 62.808 128.93 66.328C128.93 71.192 128.002 75.544 126.146 79.384C124.29 83.16 121.762 86.136 118.562 88.312C115.426 90.424 111.938 91.48 108.098 91.48ZM109.154 81.112C111.33 81.112 113.154 79.928 114.626 77.56C116.162 75.192 116.93 71.736 116.93 67.192C116.93 63.672 116.29 61.016 115.01 59.224C113.73 57.432 112.194 56.536 110.402 56.536C108.098 56.536 106.178 57.72 104.642 60.088C103.17 62.392 102.434 65.848 102.434 70.456C102.434 74.104 103.074 76.792 104.354 78.52C105.634 80.248 107.234 81.112 109.154 81.112Z" stroke="url(#paint2_linear)" stroke-width="18" mask="url(#path-1-outside-1)"/>
<path d="M108.098 91.48C104.322 91.48 101.09 90.552 98.4016 88.696C95.7776 86.776 93.7936 84.28 92.4496 81.208C91.1056 78.136 90.4336 74.84 90.4336 71.32C90.4336 66.456 91.3296 62.136 93.1216 58.36C94.9776 54.52 97.4736 51.544 100.61 49.432C103.746 47.256 107.266 46.168 111.17 46.168C114.946 46.168 118.178 47.128 120.866 49.048C123.554 50.904 125.57 53.368 126.914 56.44C128.258 59.512 128.93 62.808 128.93 66.328C128.93 71.192 128.002 75.544 126.146 79.384C124.29 83.16 121.762 86.136 118.562 88.312C115.426 90.424 111.938 91.48 108.098 91.48ZM109.154 81.112C111.33 81.112 113.154 79.928 114.626 77.56C116.162 75.192 116.93 71.736 116.93 67.192C116.93 63.672 116.29 61.016 115.01 59.224C113.73 57.432 112.194 56.536 110.402 56.536C108.098 56.536 106.178 57.72 104.642 60.088C103.17 62.392 102.434 65.848 102.434 70.456C102.434 74.104 103.074 76.792 104.354 78.52C105.634 80.248 107.234 81.112 109.154 81.112Z" stroke="url(#paint3_linear)" stroke-width="18" mask="url(#path-1-outside-1)"/>
<path d="M152.761 93.592C149.433 93.592 146.873 92.824 145.081 91.288C143.353 89.752 142.489 88.024 142.489 86.104C142.489 84.44 143.097 83 144.313 81.784C145.529 80.568 147.321 79.96 149.689 79.96C150.521 79.96 151.481 80.056 152.569 80.248C153.721 80.376 154.585 80.472 155.161 80.536C155.097 78.872 154.713 77.304 154.009 75.832C153.369 74.36 152.537 72.952 151.513 71.608C150.489 70.2 149.529 68.984 148.633 67.96C146.649 71.736 144.665 74.872 142.681 77.368C140.761 79.864 138.649 82.232 136.345 84.472C135.193 85.624 133.977 86.2 132.697 86.2C131.673 86.2 130.841 85.848 130.201 85.144C129.561 84.376 129.241 83.448 129.241 82.36C129.241 81.08 129.689 79.896 130.585 78.808L131.833 77.272C135.353 72.92 138.009 69.336 139.801 66.52C140.889 64.664 142.169 62.2 143.641 59.128C145.113 55.992 146.553 52.76 147.961 49.432C149.177 46.616 151.705 45.208 155.545 45.208C157.337 45.208 158.585 45.368 159.289 45.688C159.993 46.008 160.345 46.52 160.345 47.224C160.345 47.608 160.217 48.216 159.961 49.048C159.705 49.88 159.353 50.712 158.905 51.544C157.753 53.848 157.177 55.8 157.177 57.4C157.177 58.36 157.497 59.416 158.137 60.568C158.841 61.72 159.897 63.16 161.305 64.888C163.353 67.576 164.889 69.88 165.913 71.8C167.001 73.656 167.545 75.704 167.545 77.944C167.545 78.584 167.481 79.48 167.353 80.632C170.489 79.416 174.169 76.184 178.393 70.936C179.161 70.04 180.025 69.592 180.985 69.592C181.817 69.592 182.457 69.976 182.905 70.744C183.417 71.512 183.673 72.568 183.673 73.912C183.673 76.344 183.065 78.328 181.849 79.864C178.649 83.832 175.577 86.552 172.633 88.024C169.753 89.432 166.169 90.2 161.881 90.328C159.321 92.504 156.281 93.592 152.761 93.592Z" stroke="#535353" stroke-width="18" mask="url(#path-1-outside-1)"/>
<path d="M152.761 93.592C149.433 93.592 146.873 92.824 145.081 91.288C143.353 89.752 142.489 88.024 142.489 86.104C142.489 84.44 143.097 83 144.313 81.784C145.529 80.568 147.321 79.96 149.689 79.96C150.521 79.96 151.481 80.056 152.569 80.248C153.721 80.376 154.585 80.472 155.161 80.536C155.097 78.872 154.713 77.304 154.009 75.832C153.369 74.36 152.537 72.952 151.513 71.608C150.489 70.2 149.529 68.984 148.633 67.96C146.649 71.736 144.665 74.872 142.681 77.368C140.761 79.864 138.649 82.232 136.345 84.472C135.193 85.624 133.977 86.2 132.697 86.2C131.673 86.2 130.841 85.848 130.201 85.144C129.561 84.376 129.241 83.448 129.241 82.36C129.241 81.08 129.689 79.896 130.585 78.808L131.833 77.272C135.353 72.92 138.009 69.336 139.801 66.52C140.889 64.664 142.169 62.2 143.641 59.128C145.113 55.992 146.553 52.76 147.961 49.432C149.177 46.616 151.705 45.208 155.545 45.208C157.337 45.208 158.585 45.368 159.289 45.688C159.993 46.008 160.345 46.52 160.345 47.224C160.345 47.608 160.217 48.216 159.961 49.048C159.705 49.88 159.353 50.712 158.905 51.544C157.753 53.848 157.177 55.8 157.177 57.4C157.177 58.36 157.497 59.416 158.137 60.568C158.841 61.72 159.897 63.16 161.305 64.888C163.353 67.576 164.889 69.88 165.913 71.8C167.001 73.656 167.545 75.704 167.545 77.944C167.545 78.584 167.481 79.48 167.353 80.632C170.489 79.416 174.169 76.184 178.393 70.936C179.161 70.04 180.025 69.592 180.985 69.592C181.817 69.592 182.457 69.976 182.905 70.744C183.417 71.512 183.673 72.568 183.673 73.912C183.673 76.344 183.065 78.328 181.849 79.864C178.649 83.832 175.577 86.552 172.633 88.024C169.753 89.432 166.169 90.2 161.881 90.328C159.321 92.504 156.281 93.592 152.761 93.592Z" stroke="url(#paint4_linear)" stroke-width="18" mask="url(#path-1-outside-1)"/>
<path d="M152.761 93.592C149.433 93.592 146.873 92.824 145.081 91.288C143.353 89.752 142.489 88.024 142.489 86.104C142.489 84.44 143.097 83 144.313 81.784C145.529 80.568 147.321 79.96 149.689 79.96C150.521 79.96 151.481 80.056 152.569 80.248C153.721 80.376 154.585 80.472 155.161 80.536C155.097 78.872 154.713 77.304 154.009 75.832C153.369 74.36 152.537 72.952 151.513 71.608C150.489 70.2 149.529 68.984 148.633 67.96C146.649 71.736 144.665 74.872 142.681 77.368C140.761 79.864 138.649 82.232 136.345 84.472C135.193 85.624 133.977 86.2 132.697 86.2C131.673 86.2 130.841 85.848 130.201 85.144C129.561 84.376 129.241 83.448 129.241 82.36C129.241 81.08 129.689 79.896 130.585 78.808L131.833 77.272C135.353 72.92 138.009 69.336 139.801 66.52C140.889 64.664 142.169 62.2 143.641 59.128C145.113 55.992 146.553 52.76 147.961 49.432C149.177 46.616 151.705 45.208 155.545 45.208C157.337 45.208 158.585 45.368 159.289 45.688C159.993 46.008 160.345 46.52 160.345 47.224C160.345 47.608 160.217 48.216 159.961 49.048C159.705 49.88 159.353 50.712 158.905 51.544C157.753 53.848 157.177 55.8 157.177 57.4C157.177 58.36 157.497 59.416 158.137 60.568C158.841 61.72 159.897 63.16 161.305 64.888C163.353 67.576 164.889 69.88 165.913 71.8C167.001 73.656 167.545 75.704 167.545 77.944C167.545 78.584 167.481 79.48 167.353 80.632C170.489 79.416 174.169 76.184 178.393 70.936C179.161 70.04 180.025 69.592 180.985 69.592C181.817 69.592 182.457 69.976 182.905 70.744C183.417 71.512 183.673 72.568 183.673 73.912C183.673 76.344 183.065 78.328 181.849 79.864C178.649 83.832 175.577 86.552 172.633 88.024C169.753 89.432 166.169 90.2 161.881 90.328C159.321 92.504 156.281 93.592 152.761 93.592Z" stroke="url(#paint5_linear)" stroke-width="18" mask="url(#path-1-outside-1)"/>
<path d="M210.242 72.472C211.074 72.472 211.714 72.856 212.162 73.624C212.674 74.392 212.93 75.448 212.93 76.792C212.93 79.096 212.386 81.08 211.298 82.744C209.506 85.496 207.138 87.64 204.194 89.176C201.314 90.712 197.858 91.48 193.826 91.48C187.682 91.48 182.914 89.656 179.522 86.008C176.13 82.296 174.434 77.304 174.434 71.032C174.434 66.616 175.362 62.52 177.218 58.744C179.074 54.904 181.634 51.864 184.898 49.624C188.226 47.384 191.97 46.264 196.13 46.264C199.842 46.264 202.818 47.384 205.058 49.624C207.298 51.8 208.418 54.776 208.418 58.552C208.418 62.968 206.818 66.776 203.618 69.976C200.482 73.112 195.106 75.608 187.49 77.464C189.026 80.408 191.618 81.88 195.266 81.88C197.89 81.88 200.034 81.272 201.698 80.056C203.426 78.84 205.41 76.792 207.65 73.912C208.418 72.952 209.282 72.472 210.242 72.472ZM194.498 55.672C192.13 55.672 190.114 57.048 188.45 59.8C186.85 62.552 186.05 65.88 186.05 69.784V69.976C189.826 69.08 192.802 67.736 194.978 65.944C197.154 64.152 198.242 62.072 198.242 59.704C198.242 58.488 197.89 57.528 197.186 56.824C196.546 56.056 195.65 55.672 194.498 55.672Z" stroke="#535353" stroke-width="18" mask="url(#path-1-outside-1)"/>
<path d="M210.242 72.472C211.074 72.472 211.714 72.856 212.162 73.624C212.674 74.392 212.93 75.448 212.93 76.792C212.93 79.096 212.386 81.08 211.298 82.744C209.506 85.496 207.138 87.64 204.194 89.176C201.314 90.712 197.858 91.48 193.826 91.48C187.682 91.48 182.914 89.656 179.522 86.008C176.13 82.296 174.434 77.304 174.434 71.032C174.434 66.616 175.362 62.52 177.218 58.744C179.074 54.904 181.634 51.864 184.898 49.624C188.226 47.384 191.97 46.264 196.13 46.264C199.842 46.264 202.818 47.384 205.058 49.624C207.298 51.8 208.418 54.776 208.418 58.552C208.418 62.968 206.818 66.776 203.618 69.976C200.482 73.112 195.106 75.608 187.49 77.464C189.026 80.408 191.618 81.88 195.266 81.88C197.89 81.88 200.034 81.272 201.698 80.056C203.426 78.84 205.41 76.792 207.65 73.912C208.418 72.952 209.282 72.472 210.242 72.472ZM194.498 55.672C192.13 55.672 190.114 57.048 188.45 59.8C186.85 62.552 186.05 65.88 186.05 69.784V69.976C189.826 69.08 192.802 67.736 194.978 65.944C197.154 64.152 198.242 62.072 198.242 59.704C198.242 58.488 197.89 57.528 197.186 56.824C196.546 56.056 195.65 55.672 194.498 55.672Z" stroke="url(#paint6_linear)" stroke-width="18" mask="url(#path-1-outside-1)"/>
<path d="M210.242 72.472C211.074 72.472 211.714 72.856 212.162 73.624C212.674 74.392 212.93 75.448 212.93 76.792C212.93 79.096 212.386 81.08 211.298 82.744C209.506 85.496 207.138 87.64 204.194 89.176C201.314 90.712 197.858 91.48 193.826 91.48C187.682 91.48 182.914 89.656 179.522 86.008C176.13 82.296 174.434 77.304 174.434 71.032C174.434 66.616 175.362 62.52 177.218 58.744C179.074 54.904 181.634 51.864 184.898 49.624C188.226 47.384 191.97 46.264 196.13 46.264C199.842 46.264 202.818 47.384 205.058 49.624C207.298 51.8 208.418 54.776 208.418 58.552C208.418 62.968 206.818 66.776 203.618 69.976C200.482 73.112 195.106 75.608 187.49 77.464C189.026 80.408 191.618 81.88 195.266 81.88C197.89 81.88 200.034 81.272 201.698 80.056C203.426 78.84 205.41 76.792 207.65 73.912C208.418 72.952 209.282 72.472 210.242 72.472ZM194.498 55.672C192.13 55.672 190.114 57.048 188.45 59.8C186.85 62.552 186.05 65.88 186.05 69.784V69.976C189.826 69.08 192.802 67.736 194.978 65.944C197.154 64.152 198.242 62.072 198.242 59.704C198.242 58.488 197.89 57.528 197.186 56.824C196.546 56.056 195.65 55.672 194.498 55.672Z" stroke="url(#paint7_linear)" stroke-width="18" mask="url(#path-1-outside-1)"/>
<path d="M221.294 67.384C219.758 67.512 218.51 67.064 217.55 66.04C216.654 65.016 216.206 63.576 216.206 61.72C216.206 59.992 216.622 58.712 217.454 57.88C218.35 57.048 219.63 56.568 221.294 56.44L240.974 54.52C242.574 54.392 243.79 54.808 244.622 55.768C245.518 56.664 245.966 58.008 245.966 59.8C245.966 63.256 244.302 65.144 240.974 65.464L221.294 67.384Z" stroke="#535353" stroke-width="18" mask="url(#path-1-outside-1)"/>
<path d="M221.294 67.384C219.758 67.512 218.51 67.064 217.55 66.04C216.654 65.016 216.206 63.576 216.206 61.72C216.206 59.992 216.622 58.712 217.454 57.88C218.35 57.048 219.63 56.568 221.294 56.44L240.974 54.52C242.574 54.392 243.79 54.808 244.622 55.768C245.518 56.664 245.966 58.008 245.966 59.8C245.966 63.256 244.302 65.144 240.974 65.464L221.294 67.384Z" stroke="url(#paint8_linear)" stroke-width="18" mask="url(#path-1-outside-1)"/>
<path d="M221.294 67.384C219.758 67.512 218.51 67.064 217.55 66.04C216.654 65.016 216.206 63.576 216.206 61.72C216.206 59.992 216.622 58.712 217.454 57.88C218.35 57.048 219.63 56.568 221.294 56.44L240.974 54.52C242.574 54.392 243.79 54.808 244.622 55.768C245.518 56.664 245.966 58.008 245.966 59.8C245.966 63.256 244.302 65.144 240.974 65.464L221.294 67.384Z" stroke="url(#paint9_linear)" stroke-width="18" mask="url(#path-1-outside-1)"/>
<path d="M286.871 91.48C281.175 91.48 276.023 90.2 271.415 87.64C266.871 85.08 263.255 81.336 260.567 76.408C257.879 71.416 256.535 65.464 256.535 58.552C256.535 48.824 258.295 40.248 261.815 32.824C265.399 25.4 270.231 19.672 276.311 15.64C282.455 11.608 289.239 9.592 296.663 9.592C302.359 9.592 307.479 10.872 312.023 13.432C316.631 15.992 320.279 19.768 322.967 24.76C325.655 29.688 326.999 35.608 326.999 42.52C326.999 52.248 325.207 60.824 321.623 68.248C318.103 75.672 313.271 81.4 307.127 85.432C301.047 89.464 294.295 91.48 286.871 91.48ZM287.831 80.152C292.823 80.152 297.207 78.616 300.983 75.544C304.823 72.472 307.767 68.216 309.815 62.776C311.863 57.272 312.887 51.064 312.887 44.152C312.887 36.536 311.287 30.776 308.087 26.872C304.887 22.904 300.759 20.92 295.703 20.92C290.775 20.92 286.423 22.456 282.647 25.528C278.871 28.536 275.927 32.792 273.815 38.296C271.703 43.736 270.647 49.944 270.647 56.92C270.647 64.536 272.247 70.328 275.447 74.296C278.647 78.2 282.775 80.152 287.831 80.152Z" stroke="#535353" stroke-width="18" mask="url(#path-1-outside-1)"/>
<path d="M286.871 91.48C281.175 91.48 276.023 90.2 271.415 87.64C266.871 85.08 263.255 81.336 260.567 76.408C257.879 71.416 256.535 65.464 256.535 58.552C256.535 48.824 258.295 40.248 261.815 32.824C265.399 25.4 270.231 19.672 276.311 15.64C282.455 11.608 289.239 9.592 296.663 9.592C302.359 9.592 307.479 10.872 312.023 13.432C316.631 15.992 320.279 19.768 322.967 24.76C325.655 29.688 326.999 35.608 326.999 42.52C326.999 52.248 325.207 60.824 321.623 68.248C318.103 75.672 313.271 81.4 307.127 85.432C301.047 89.464 294.295 91.48 286.871 91.48ZM287.831 80.152C292.823 80.152 297.207 78.616 300.983 75.544C304.823 72.472 307.767 68.216 309.815 62.776C311.863 57.272 312.887 51.064 312.887 44.152C312.887 36.536 311.287 30.776 308.087 26.872C304.887 22.904 300.759 20.92 295.703 20.92C290.775 20.92 286.423 22.456 282.647 25.528C278.871 28.536 275.927 32.792 273.815 38.296C271.703 43.736 270.647 49.944 270.647 56.92C270.647 64.536 272.247 70.328 275.447 74.296C278.647 78.2 282.775 80.152 287.831 80.152Z" stroke="url(#paint10_linear)" stroke-width="18" mask="url(#path-1-outside-1)"/>
<path d="M286.871 91.48C281.175 91.48 276.023 90.2 271.415 87.64C266.871 85.08 263.255 81.336 260.567 76.408C257.879 71.416 256.535 65.464 256.535 58.552C256.535 48.824 258.295 40.248 261.815 32.824C265.399 25.4 270.231 19.672 276.311 15.64C282.455 11.608 289.239 9.592 296.663 9.592C302.359 9.592 307.479 10.872 312.023 13.432C316.631 15.992 320.279 19.768 322.967 24.76C325.655 29.688 326.999 35.608 326.999 42.52C326.999 52.248 325.207 60.824 321.623 68.248C318.103 75.672 313.271 81.4 307.127 85.432C301.047 89.464 294.295 91.48 286.871 91.48ZM287.831 80.152C292.823 80.152 297.207 78.616 300.983 75.544C304.823 72.472 307.767 68.216 309.815 62.776C311.863 57.272 312.887 51.064 312.887 44.152C312.887 36.536 311.287 30.776 308.087 26.872C304.887 22.904 300.759 20.92 295.703 20.92C290.775 20.92 286.423 22.456 282.647 25.528C278.871 28.536 275.927 32.792 273.815 38.296C271.703 43.736 270.647 49.944 270.647 56.92C270.647 64.536 272.247 70.328 275.447 74.296C278.647 78.2 282.775 80.152 287.831 80.152Z" stroke="url(#paint11_linear)" stroke-width="18" mask="url(#path-1-outside-1)"/>
<path d="M360.158 91.768C351.646 91.768 344.83 90.168 339.71 86.968C334.59 83.704 332.03 78.744 332.03 72.088C332.03 68.568 332.638 65.88 333.854 64.024C335.07 62.168 336.862 61.24 339.23 61.24C340.958 61.24 342.366 61.688 343.454 62.584C344.542 63.48 345.086 64.632 345.086 66.04C345.086 67.32 344.99 68.44 344.798 69.4C344.798 69.656 344.734 70.104 344.606 70.744C344.542 71.384 344.51 72.056 344.51 72.76C344.51 75.64 345.95 77.784 348.83 79.192C351.774 80.6 355.87 81.304 361.118 81.304C366.558 81.304 370.814 80.344 373.886 78.424C376.958 76.44 378.494 73.688 378.494 70.168C378.494 67.992 377.79 66.136 376.382 64.6C374.974 63 373.214 61.688 371.102 60.664C368.99 59.576 366.014 58.264 362.174 56.728C357.246 54.808 353.214 52.984 350.078 51.256C347.006 49.528 344.35 47.192 342.11 44.248C339.934 41.24 338.846 37.528 338.846 33.112C338.846 28.504 340.062 24.408 342.494 20.824C344.99 17.24 348.542 14.456 353.15 12.472C357.822 10.488 363.294 9.496 369.566 9.496C374.238 9.496 378.526 10.2 382.43 11.608C386.334 12.952 389.438 15.032 391.742 17.848C394.11 20.664 395.294 24.12 395.294 28.216C395.294 32.248 394.686 35.288 393.47 37.336C392.254 39.384 390.462 40.408 388.094 40.408C386.43 40.408 385.022 39.896 383.87 38.872C382.782 37.848 382.238 36.632 382.238 35.224C382.238 34.008 382.334 32.888 382.526 31.864C382.718 29.944 382.814 28.728 382.814 28.216C382.814 25.528 381.502 23.48 378.878 22.072C376.254 20.664 372.99 19.96 369.086 19.96C363.582 19.96 359.358 20.984 356.414 23.032C353.534 25.016 352.094 27.832 352.094 31.48C352.094 33.912 352.83 35.992 354.302 37.72C355.838 39.448 357.726 40.888 359.966 42.04C362.206 43.192 365.342 44.568 369.374 46.168C374.238 48.152 378.142 49.944 381.086 51.544C384.03 53.144 386.526 55.32 388.574 58.072C390.686 60.824 391.742 64.216 391.742 68.248C391.742 75.8 388.862 81.624 383.102 85.72C377.406 89.752 369.758 91.768 360.158 91.768Z" stroke="#535353" stroke-width="18" mask="url(#path-1-outside-1)"/>
<path d="M360.158 91.768C351.646 91.768 344.83 90.168 339.71 86.968C334.59 83.704 332.03 78.744 332.03 72.088C332.03 68.568 332.638 65.88 333.854 64.024C335.07 62.168 336.862 61.24 339.23 61.24C340.958 61.24 342.366 61.688 343.454 62.584C344.542 63.48 345.086 64.632 345.086 66.04C345.086 67.32 344.99 68.44 344.798 69.4C344.798 69.656 344.734 70.104 344.606 70.744C344.542 71.384 344.51 72.056 344.51 72.76C344.51 75.64 345.95 77.784 348.83 79.192C351.774 80.6 355.87 81.304 361.118 81.304C366.558 81.304 370.814 80.344 373.886 78.424C376.958 76.44 378.494 73.688 378.494 70.168C378.494 67.992 377.79 66.136 376.382 64.6C374.974 63 373.214 61.688 371.102 60.664C368.99 59.576 366.014 58.264 362.174 56.728C357.246 54.808 353.214 52.984 350.078 51.256C347.006 49.528 344.35 47.192 342.11 44.248C339.934 41.24 338.846 37.528 338.846 33.112C338.846 28.504 340.062 24.408 342.494 20.824C344.99 17.24 348.542 14.456 353.15 12.472C357.822 10.488 363.294 9.496 369.566 9.496C374.238 9.496 378.526 10.2 382.43 11.608C386.334 12.952 389.438 15.032 391.742 17.848C394.11 20.664 395.294 24.12 395.294 28.216C395.294 32.248 394.686 35.288 393.47 37.336C392.254 39.384 390.462 40.408 388.094 40.408C386.43 40.408 385.022 39.896 383.87 38.872C382.782 37.848 382.238 36.632 382.238 35.224C382.238 34.008 382.334 32.888 382.526 31.864C382.718 29.944 382.814 28.728 382.814 28.216C382.814 25.528 381.502 23.48 378.878 22.072C376.254 20.664 372.99 19.96 369.086 19.96C363.582 19.96 359.358 20.984 356.414 23.032C353.534 25.016 352.094 27.832 352.094 31.48C352.094 33.912 352.83 35.992 354.302 37.72C355.838 39.448 357.726 40.888 359.966 42.04C362.206 43.192 365.342 44.568 369.374 46.168C374.238 48.152 378.142 49.944 381.086 51.544C384.03 53.144 386.526 55.32 388.574 58.072C390.686 60.824 391.742 64.216 391.742 68.248C391.742 75.8 388.862 81.624 383.102 85.72C377.406 89.752 369.758 91.768 360.158 91.768Z" stroke="url(#paint12_linear)" stroke-width="18" mask="url(#path-1-outside-1)"/>
<path d="M360.158 91.768C351.646 91.768 344.83 90.168 339.71 86.968C334.59 83.704 332.03 78.744 332.03 72.088C332.03 68.568 332.638 65.88 333.854 64.024C335.07 62.168 336.862 61.24 339.23 61.24C340.958 61.24 342.366 61.688 343.454 62.584C344.542 63.48 345.086 64.632 345.086 66.04C345.086 67.32 344.99 68.44 344.798 69.4C344.798 69.656 344.734 70.104 344.606 70.744C344.542 71.384 344.51 72.056 344.51 72.76C344.51 75.64 345.95 77.784 348.83 79.192C351.774 80.6 355.87 81.304 361.118 81.304C366.558 81.304 370.814 80.344 373.886 78.424C376.958 76.44 378.494 73.688 378.494 70.168C378.494 67.992 377.79 66.136 376.382 64.6C374.974 63 373.214 61.688 371.102 60.664C368.99 59.576 366.014 58.264 362.174 56.728C357.246 54.808 353.214 52.984 350.078 51.256C347.006 49.528 344.35 47.192 342.11 44.248C339.934 41.24 338.846 37.528 338.846 33.112C338.846 28.504 340.062 24.408 342.494 20.824C344.99 17.24 348.542 14.456 353.15 12.472C357.822 10.488 363.294 9.496 369.566 9.496C374.238 9.496 378.526 10.2 382.43 11.608C386.334 12.952 389.438 15.032 391.742 17.848C394.11 20.664 395.294 24.12 395.294 28.216C395.294 32.248 394.686 35.288 393.47 37.336C392.254 39.384 390.462 40.408 388.094 40.408C386.43 40.408 385.022 39.896 383.87 38.872C382.782 37.848 382.238 36.632 382.238 35.224C382.238 34.008 382.334 32.888 382.526 31.864C382.718 29.944 382.814 28.728 382.814 28.216C382.814 25.528 381.502 23.48 378.878 22.072C376.254 20.664 372.99 19.96 369.086 19.96C363.582 19.96 359.358 20.984 356.414 23.032C353.534 25.016 352.094 27.832 352.094 31.48C352.094 33.912 352.83 35.992 354.302 37.72C355.838 39.448 357.726 40.888 359.966 42.04C362.206 43.192 365.342 44.568 369.374 46.168C374.238 48.152 378.142 49.944 381.086 51.544C384.03 53.144 386.526 55.32 388.574 58.072C390.686 60.824 391.742 64.216 391.742 68.248C391.742 75.8 388.862 81.624 383.102 85.72C377.406 89.752 369.758 91.768 360.158 91.768Z" stroke="url(#paint13_linear)" stroke-width="18" mask="url(#path-1-outside-1)"/>
<defs>
<linearGradient id="paint0_linear" x1="202.623" y1="9.496" x2="202.623" y2="93.592" gradientUnits="userSpaceOnUse">
<stop stop-color="#541C1C"/>
<stop offset="0.0001" stop-color="#A67D7D" stop-opacity="0.963542"/>
<stop offset="0.744792" stop-color="white" stop-opacity="0"/>
</linearGradient>
<linearGradient id="paint1_linear" x1="202.623" y1="9.496" x2="202.623" y2="93.592" gradientUnits="userSpaceOnUse">
<stop stop-color="#A46868"/>
<stop offset="1" stop-color="white" stop-opacity="0"/>
</linearGradient>
<linearGradient id="paint2_linear" x1="202.623" y1="9.496" x2="202.623" y2="93.592" gradientUnits="userSpaceOnUse">
<stop stop-color="#541C1C"/>
<stop offset="0.0001" stop-color="#A67D7D" stop-opacity="0.963542"/>
<stop offset="0.744792" stop-color="white" stop-opacity="0"/>
</linearGradient>
<linearGradient id="paint3_linear" x1="202.623" y1="9.496" x2="202.623" y2="93.592" gradientUnits="userSpaceOnUse">
<stop stop-color="#A46868"/>
<stop offset="1" stop-color="white" stop-opacity="0"/>
</linearGradient>
<linearGradient id="paint4_linear" x1="202.623" y1="9.496" x2="202.623" y2="93.592" gradientUnits="userSpaceOnUse">
<stop stop-color="#541C1C"/>
<stop offset="0.0001" stop-color="#A67D7D" stop-opacity="0.963542"/>
<stop offset="0.744792" stop-color="white" stop-opacity="0"/>
</linearGradient>
<linearGradient id="paint5_linear" x1="202.623" y1="9.496" x2="202.623" y2="93.592" gradientUnits="userSpaceOnUse">
<stop stop-color="#A46868"/>
<stop offset="1" stop-color="white" stop-opacity="0"/>
</linearGradient>
<linearGradient id="paint6_linear" x1="202.623" y1="9.496" x2="202.623" y2="93.592" gradientUnits="userSpaceOnUse">
<stop stop-color="#541C1C"/>
<stop offset="0.0001" stop-color="#A67D7D" stop-opacity="0.963542"/>
<stop offset="0.744792" stop-color="white" stop-opacity="0"/>
</linearGradient>
<linearGradient id="paint7_linear" x1="202.623" y1="9.496" x2="202.623" y2="93.592" gradientUnits="userSpaceOnUse">
<stop stop-color="#A46868"/>
<stop offset="1" stop-color="white" stop-opacity="0"/>
</linearGradient>
<linearGradient id="paint8_linear" x1="202.623" y1="9.496" x2="202.623" y2="93.592" gradientUnits="userSpaceOnUse">
<stop stop-color="#541C1C"/>
<stop offset="0.0001" stop-color="#A67D7D" stop-opacity="0.963542"/>
<stop offset="0.744792" stop-color="white" stop-opacity="0"/>
</linearGradient>
<linearGradient id="paint9_linear" x1="202.623" y1="9.496" x2="202.623" y2="93.592" gradientUnits="userSpaceOnUse">
<stop stop-color="#A46868"/>
<stop offset="1" stop-color="white" stop-opacity="0"/>
</linearGradient>
<linearGradient id="paint10_linear" x1="202.623" y1="9.496" x2="202.623" y2="93.592" gradientUnits="userSpaceOnUse">
<stop stop-color="#541C1C"/>
<stop offset="0.0001" stop-color="#A67D7D" stop-opacity="0.963542"/>
<stop offset="0.744792" stop-color="white" stop-opacity="0"/>
</linearGradient>
<linearGradient id="paint11_linear" x1="202.623" y1="9.496" x2="202.623" y2="93.592" gradientUnits="userSpaceOnUse">
<stop stop-color="#A46868"/>
<stop offset="1" stop-color="white" stop-opacity="0"/>
</linearGradient>
<linearGradient id="paint12_linear" x1="202.623" y1="9.496" x2="202.623" y2="93.592" gradientUnits="userSpaceOnUse">
<stop stop-color="#541C1C"/>
<stop offset="0.0001" stop-color="#A67D7D" stop-opacity="0.963542"/>
<stop offset="0.744792" stop-color="white" stop-opacity="0"/>
</linearGradient>
<linearGradient id="paint13_linear" x1="202.623" y1="9.496" x2="202.623" y2="93.592" gradientUnits="userSpaceOnUse">
<stop stop-color="#A46868"/>
<stop offset="1" stop-color="white" stop-opacity="0"/>
</linearGradient>
</defs>
</svg>
